# xmcd
# 
# Track frame offsets:
#     150
#     20588
#     39493
#     61305
#     80155
#     105038
#     137153
#     159213
#     179763
#     204508
#     224018
#     245835
#     270153
#     296558
# 
# Disc length: 4211
# 
# Revision: 0
# Processed by: cddbd v1.5.2PL0 Copyright (c) Steve Scherf et al.
# Submitted via: fre:ac v1.0.17
# 
DISCID=cb10710e
DTITLE=谷村新司 - 谷村新司ベスト 旅コレクション
DYEAR=0
DGENRE=
TTITLE0=いい日旅立ち
TTITLE1=三都物語
TTITLE2=遠くで汽笛を聞きながら
TTITLE3=こころ前線
TTITLE4=祇園祭
TTITLE5=サライ
TTITLE6=さらば青春の時
TTITLE7=昴 -すばる-
TTITLE8=ノーザンエクスプレス
TTITLE9=空にしずめる物語
TTITLE10=歩きつづけて
TTITLE11=幸福 -しあわせ-
TTITLE12=最終フライト
TTITLE13=浪漫鉄道(途上篇)
EXTD=
EXTT0=
EXTT1=
EXTT2=
EXTT3=
EXTT4=
EXTT5=
EXTT6=
EXTT7=
EXTT8=
EXTT9=
EXTT10=
EXTT11=
EXTT12=
EXTT13=
PLAYORDER=
